<svg xmlns="http://www.w3.org/2000/svg" xmlns:xlink="http://www.w3.org/1999/xlink" viewBox="0 0 2675.02941 2486.64706">
  <defs>
    <linearGradient id="b7f54547-72db-4937-9d92-427d8f42b3fc" data-name="Unbenannter Verlauf 15" y1="882.46532" x2="1651.21118" y2="882.46532" gradientUnits="userSpaceOnUse">
      <stop offset="0" stop-color="#b4db63"/>
      <stop offset="1" stop-color="#69d363"/>
    </linearGradient>
    <linearGradient id="fd9e1956-2f09-4744-b8f9-c880360e8227" x1="4542.42448" y1="2455.32641" x2="6193.63566" y2="2455.32641" gradientTransform="translate(7217.45389 4059.50815) rotate(180)" xlink:href="#b7f54547-72db-4937-9d92-427d8f42b3fc"/>
  </defs>
  <g id="b4da9a04-eacc-40ff-a566-d21d236e946c" data-name="Ebene 2">
    <g id="b87d3e2f-804e-4f7e-bb52-56aff2d03630" data-name="Ebene 1">
      <path d="M0,1657.76471c99.57222,5.50061,673.13577,27.62266,1149.13235-414.44118,463.5788-430.5337,519.33-1130.80463,498.39458-1138.07593-12.95128-4.498-54.61984,255.00146-234.65928,478.73769C1094.5769,979.52845,512.39448,1053.75459,0,1036.10294" style="fill: url(#b7f54547-72db-4937-9d92-427d8f42b3fc)"/>
    </g>
    <g id="ff9db923-ba98-4d09-802d-c6d4b519f97d" data-name="Ebene 2">
      <path d="M1054.94118,866.55882c84.30294-34.40185,378.31-175.06773,527.47058-498.39458C1648.73192,224.41692,1664.32313,90.76019,1666.36517,0h-611.424" style="fill: #34723c"/>
      <path d="M2675.02941,828.88235c-99.57221-5.50061-673.13577-27.62266-1149.13235,414.44118-463.5788,430.5337-519.33,1130.80463-498.39458,1138.07593,12.95128,4.498,54.61984-255.00146,234.65928-478.7377,318.29075-395.54315,900.47317-469.76929,1412.86765-452.11764" style="fill: url(#fd9e1956-2f09-4744-b8f9-c880360e8227)"/>
      <path d="M1620.08824,2486.64706h-611.424c2.042-90.76019,17.63325-224.41692,83.95341-368.16424,149.16056-323.32685,443.16764-463.99273,527.47059-498.39458" style="fill: #34723c"/>
    </g>
  </g>
</svg>
